#!OML:ASF H:\Dans Jumps\Project 1\Capture day 1\Session 1\subject.ASF
:FULLY-SPECIFIED
:DEGREES
222
root 0.104984 12.5637 -16.9391 23.4789 -1.15733 -1.24771
lowerback 35.1851 0.754763 -0.328457
upperback 10.8364 0.994351 2.26938
thorax -5.85872 0.393269 2.20437
lowerneck -20.9784 0.625961 -1.4446
upperneck 8.15187 1.48515 -1.82724
head 5.84051 0.519702 -0.196889
rclavicle 3.37934e-015 4.67144e-015
rhumerus -76.349 -15.0415 -42.545
rradius 19.1928
rwrist 40.3961
rhand -17.5533 -21.5752
rfingers 7.12502
rthumb 8.70138 -51.3759
lclavicle 3.37934e-015 4.67144e-015
lhumerus -67.5684 9.51292 63.2141
lradius 11.0318
lwrist 4.38815
lhand -24.5458 -6.66686
lfingers 7.12502
lthumb 1.95021 23.304
rfemur -89.9701 -3.75515 20.1631
rtibia 96.8299
rfoot -29.2306 -7.28379
rtoes -3.05924
lfemur -89.3934 5.40642 -23.2247
ltibia 96.7186
lfoot -26.5569 15.2202
ltoes -2.74467
223
root 0.103873 12.4989 -16.9537 23.3444 -1.10671 -1.28134
lowerback 35.9731 0.763627 -0.288108
upperback 10.7429 1.02339 2.28798
thorax -6.1071 0.404844 2.19787
lowerneck -21.0215 0.614271 -1.45037
upperneck 7.90374 1.47029 -1.85536
head 5.76755 0.513145 -0.206931
rclavicle 5.56597e-015 5.26779e-015
rhumerus -76.8563 -14.969 -41.8538
rradius 18.8682
rwrist 41.0979
rhand -17.3533 -21.6119
rfingers 7.12502
rthumb 8.89443 -51.4045
lclavicle 5.56597e-015 5.26779e-015
lhumerus -68.0529 9.09942 63.5975
lradius 11.0498
lwrist 4.85312
lhand -24.1852 -6.32752
lfingers 7.12502
lthumb 2.29845 23.6398
rfemur -90.3004 -3.79588 20.2402
rtibia 97.4397
rfoot -29.4225 -7.41959
rtoes -3.00042
lfemur -89.7455 5.37772 -23.1842
ltibia 97.3409
lfoot -26.7058 15.3099
ltoes -2.68203
224
root 0.102195 12.4362 -16.9676 23.2235 -1.05853 -1.31198
lowerback 36.6506 0.779812 -0.261759
upperback 10.7377 1.05721 2.31593
thorax -6.34921 0.418922 2.19781
lowerneck -21.0661 0.60196 -1.45313
upperneck 7.65437 1.45476 -1.89174
head 5.69459 0.505718 -0.220142
rclavicle -7.7526e-015 7.15625e-015
rhumerus -77.2925 -14.9321 -41.1733
rradius 18.5366
rwrist 41.8409
rhand -17.1355 -21.6427
rfingers 7.12502
rthumb 9.10456 -51.4262
lclavicle -7.7526e-015 7.15625e-015
lhumerus -68.4434 8.63107 64.1461
lradius 11.071
lwrist 5.35689
lhand -23.8162 -5.94752
lfingers 7.12502
lthumb 2.65483 24.0157
rfemur -90.632 -3.83096 20.3174
rtibia 98.0304
rfoot -29.6189 -7.56667
rtoes -2.94662
lfemur -90.096 5.34849 -23.1457
ltibia 97.9389
lfoot -26.8506 15.4019
ltoes -2.60661
225
root 0.0998657 12.3763 -16.9806 23.1135 -1.00906 -1.33538
lowerback 37.3142 0.801861 -0.249335
upperback 10.7267 1.09436 2.34905
thorax -6.5896 0.434215 2.20926
lowerneck -21.1125 0.588672 -1.45388
upperneck 7.41129 1.43819 -1.93398
head 5.62405 0.49729 -0.235624
rclavicle 1.19271e-015 1.09332e-015
rhumerus -77.6517 -14.9292 -40.5054
rradius 18.1995
rwrist 42.6298
rhand -16.8963 -21.6636
rfingers 7.12502
rthumb 9.3354 -51.4369
lclavicle 1.19271e-015 1.09332e-015
lhumerus -68.7266 8.41491 64.3507
lradius 10.9594
lwrist 5.32276
lhand -23.4355 -5.57522
lfingers 7.12502
lthumb 3.02251 24.3831
rfemur -90.956 -3.86452 20.3915
rtibia 98.5988
rfoot -29.8282 -7.7252
rtoes -2.9091
lfemur -90.4364 5.31749 -23.1134
ltibia 98.5076
lfoot -26.993 15.4948
ltoes -2.51729
